<svg id="Layer_1" data-name="Layer 1" xmlns="http://www.w3.org/2000/svg" width="278.97" height="267.45" viewBox="0 0 278.97 267.45"><title>Disney Mickey Mouse logo - Brandlogos.net</title><path d="M521.94,381.21c-.35-3.86-2.27-6.74-8.23-9.45a63.31,63.31,0,0,0-14.38-4.37c-4.95-3.76-10.72-6.06-16.44-3.84a10.14,10.14,0,0,0-2.62,1.55c-5.18-.43-10.11-.85-14.46-1.61a51.08,51.08,0,0,1,4.91-4.35c.35-.08.68-.18,1-.28,15.17-4.5,20.68-15.32,19.7-26.39a12.94,12.94,0,0,0,4.4-6.68c2.66-10.05-7.48-15.21-12.63-10.59a19.16,19.16,0,0,0-4.33,6.75,12,12,0,0,0-3.69.5c-.75-26.05-21.46-38.06-37.41-36.59,9.35-8.8,5.87-22.29-2-29.41s-24.59-9.83-34.63,1.38c-11.79,13.14-4.8,34.07,10.64,35-6,3.29-11.29,8.18-13.87,14.85-1.24-12.36-14-21.53-26.5-16.27-14,5.87-17.34,24.36-11.47,37.25,6.25,13.72,25.92,15,35.21,3.92a42.34,42.34,0,0,0,19,28.26c-10,.94-23.93,4-32.94,7.68-6.19-3.53-11.51-1.31-13.16,3-17.24,4-25.23,29.79-8.61,36.7a13.22,13.22,0,0,0,8.84,4.85,10.89,10.89,0,0,0,8,5.09c8.64,1.35,14.69-7.16,15.06-13.91,5.34-2.11,8.51-5.32,9-11.52.42-5.6-3.82-10.53-8.34-14.14a90.83,90.83,0,0,1,37.46-4.73c.53,7.11-3.18,12.27-9.6,17.63-9.81,8.18-21.21,11.1-24.5,26.85a33,33,0,0,0-.75,7.24c-12,3.8-27.19,2-41.57-3.45-37.31-14-77-45-108.58-22,34.72-21.2,71.5,10.42,107.74,24,21.71,8.14,34.85,7.74,42.67,5.2a37.49,37.49,0,0,0,4.32,12.64c-3.76,2.39-8.94,2.57-12.85,2.39-1.3-4.74-5.22-6.75-8.64-6-1.69-2.38-5.23-3.21-8.42-2.8-8.33,1-24.48,26.4-16.09,44.23,9,19.12,44.54,16.1,50.76-1,2.33-6.42-2.28-15.71-14.31-16.4-.6,0-1.64-.12-2.28-.09a6.91,6.91,0,0,0-2-2.21,7.93,7.93,0,0,0,1.23-2.47c7.2.4,15.55-1.64,19.39-3.77a57.2,57.2,0,0,1,3.72,8.63c.64,2.07,6.57,0,13-3.54a254.49,254.49,0,0,1,18.25,29c-3.21,5-5,11-1.25,13.63a4.25,4.25,0,0,0,2,.76c-2.87,7.9,2.32,17.13,15.66,15.25,15.61-2.2,33.9-18,38.86-38.41,5.86-24.19-12.72-35.75-26.23-27.56-7.88,4.76-13,14-15,24a4.66,4.66,0,0,0-3.52,0,224.53,224.53,0,0,0-16.08-25.8c2.7-2.89,2.68-4.72,2-5.46-.22-.25-.49-.58-.79-1,10.12-13,20.79-16.48,29.06-40.35,2.43-7,3-16.65,1.59-25.07,2.05.12,4.64.36,6.37.57a18.45,18.45,0,0,0,.08,5A12.5,12.5,0,0,0,475,387c-2.52,1.15-4.45,3.81-3.3,7,1,2.66,4,3.61,6.07,5.74,2.69,2.82,4.06,4.64,6.21,4.8,3.36.25,6-3.28,5.5-7.19a20.1,20.1,0,0,0,4.7-.06,8.64,8.64,0,0,0,8,5.48,9.45,9.45,0,0,0,8.14-4.77,7.33,7.33,0,0,0,2.77-.1,11,11,0,0,0,8.42-8.23,5.93,5.93,0,0,0,.41-8.41" transform="translate(-244.52 -250.28)" style="fill:#231f20"/><path d="M474.14,322.82a10.34,10.34,0,0,0-1.42.62,45.45,45.45,0,0,0-1.24-7.91c-2.22-8.14-6.7-13.64-9.28-12.32-2.11,1.08-.28,7,2.55,16.18,1.16,3.78,2,6.82,2.9,8.89a11,11,0,0,0-1.42,4.44,16.6,16.6,0,0,1,12.16-9.55,30.51,30.51,0,0,0-1.58,5.9c-.61,4.27,3.31,6.95,7.83,6.32a14.11,14.11,0,0,0,5.3-1.87c.85,8.37-4.27,19.27-18.82,23.48-16.4,4.74-31.25-2.83-35.86-15a26.49,26.49,0,0,1,8-.35c-7-2.55-16.65.46-18.72,5.56a17.21,17.21,0,0,1,7.62-4.43c6.8,7.61,3.62,23.53,13.6,26.84,8.89,2.95,13.43-4.69,19-9.45a33.06,33.06,0,0,0,3.87-.51c-7.69,6.15-12.89,15.05-21.85,13.37-9.43-1.76-10.73-9.62-13.15-12.48a41.56,41.56,0,0,0,2,5.76A40.6,40.6,0,0,1,415.92,360c-14.35-11.23-4.88-32.65,22.39-27-13.1-12.27-16.22-35.51-6.49-42.87,6.89-5.24,17.63,2.44,20.27,6.66a67.09,67.09,0,0,1,.12-7c15.5,6.43,21.79,22.23,21.92,33" transform="translate(-244.52 -250.28)" style="fill:#fff"/><path d="M508.9,376.65c4.51-.69,16.55,5.1,12.63,11-.72-4.26-4.85-5.45-12.63-11" transform="translate(-244.52 -250.28)" style="fill:#fff"/><path d="M513,373.27c4.38,2.12,6,3.65,7,6-3.28-2.6-8.76-4.75-12.29-3.55-.95-1-3.75-4.32-5.66-6.07a50.29,50.29,0,0,1,11,3.6" transform="translate(-244.52 -250.28)" style="fill:#231f20"/><path d="M468.38,327.16c-.68-2.07-1.43-5-2.39-8.19,0-.09-.05-.18-.08-.27.89-.08,2.15,2.21,2.85,5.21a19.44,19.44,0,0,1,.39,2.3,10.41,10.41,0,0,0-.77.94" transform="translate(-244.52 -250.28)" style="fill:#231f20"/><path d="M469.9,325.44c-.09-.55-.18-1.12-.32-1.71-.84-3.59-2.59-6.24-3.91-5.93h0c-2.2-7.17-4.4-12.94-2.84-13.89s5.53,3.88,7.53,12.09a51.18,51.18,0,0,1,1.38,8,12.22,12.22,0,0,0-1.79,1.4" transform="translate(-244.52 -250.28)" style="fill:#fff"/><path d="M449.46,364.68a9.35,9.35,0,0,0-.89-3.76c2.85-.78,6.81.33,8.79,4.65-3.15,2.64-6.54,4.42-11,2.9s-5.84-5.27-7-9.93c5-1.93,8.48,1.53,10.17,6.14" transform="translate(-244.52 -250.28)" style="fill:#fff"/><path d="M458.18,364.86a7.84,7.84,0,0,0-10.07-4.75,6.83,6.83,0,0,0-9.08-2.63c-1.15-4.75-2.22-10.26-5.75-15.07l.89-.23c3.8,11.46,16.13,18.43,29,18-1.7,1.49-3.33,3.15-5,4.63" transform="translate(-244.52 -250.28)" style="fill:#231f20"/><path d="M395.56,330.51c-9.77,11.53-27.78,10-33.87-2.58-4.77-9.86-3-29.05,10.49-35s25.16,6,25.07,18.58c4.45-10.13,11.29-16.35,18.06-19.29-19.38-.18-22.62-22.48-12.9-33.34s26.49-6.85,32.35-1c8.54,8.52,9.94,21.13.19,29.07a41.16,41.16,0,0,1,16.28,2.46,28.43,28.43,0,0,0,0,5c-3.65-4.62-13.12-10.14-20-5.24-10.76,7.65-6.85,31.21,4.79,42.58-22.8-4.11-33.95,12.78-25.19,24.62a47.14,47.14,0,0,1-15.25-25.87" transform="translate(-244.52 -250.28)" style="fill:#231f20"/><path d="M375.15,371.68a27.18,27.18,0,0,1,4.32-2.41c-8.3-3.91-14.7,5.55-6,13.16,7.43,6.47,16.76,2.81,16.19-3.12-2.24.77-4.6,1.61-5.79,2-6.76,2-12.22-7.15-8.76-9.59" transform="translate(-244.52 -250.28)" style="fill:#fff"/><path d="M391.38,379.72c.22,7-10.32,11.58-19.2,3.51-3.81-3.47-5-7.29-4.45-10.39-13.7,4.46-21.43,24.64-9.55,33.26a10.75,10.75,0,0,1-1.1-7.33c.92,7.69,6.23,11.54,10.4,12.56a28.74,28.74,0,0,1-1.87-9.7c2.22,6.84,3,13.33,10.84,14.67,8.61,1.47,14.83-9.42,13.59-14.7-1.2,3-2.78,6-5.31,6.62,2.94-3.64,3.83-9.17,7.3-11.91-.43,1-.85,2.21-1.34,3.55a7.91,7.91,0,0,1,.71,2.74c4.15-2,6.73-4.41,7.23-10,.39-4.38-2.89-8.9-7.23-12.84" transform="translate(-244.52 -250.28)" style="fill:#fff"/><path d="M430.49,372.51c-23.83-2.61-41.61,5.8-46.93,7.34s-9.31-5.82-7.39-7.21c7.29-5.22,26.87-9.24,40.13-10.59a39.47,39.47,0,0,0,20,5.69,14.51,14.51,0,0,0,10.37,6.86c6.7,1.2,11-2.81,15.77-7.68,3.95,9,4.76,20.69,2.82,30.24-12.86,11.5-37.51,10-45.29-3.37.4-.31.78-.64,1.18-1,5.86-4.92,10.76-12,9.33-20.33" transform="translate(-244.52 -250.28)" style="fill:#231f20"/><path d="M378.13,464.55c-5.5-.85-10.08.44-12.48,3.25a24.18,24.18,0,0,1,10-2.06,23.68,23.68,0,0,0-7.75,6.3c6.12-4.45,13.79-8.51,21.86-8,10.59.63,14.93,8.86,12.89,14.08-5.86,15-39,18.85-47.56.89-8-16.87,7.32-41.25,14.75-42.24a8.31,8.31,0,0,1,6.5,2c-3,1.34-5.65,4.78-5.93,10.85-.54,11.53,9.29,14.83,14,11.45a4.42,4.42,0,0,1,1.24,1.43,30.08,30.08,0,0,0-7.5,2.11" transform="translate(-244.52 -250.28)" style="fill:#fff"/><path d="M371.74,449.92c.52-11.13,10.57-13.22,13.12-5.73-1.16-.06-2.81-.19-3.52-.15-5.56.31-5.4,10.27-.5,12.25a16.89,16.89,0,0,0,4.22,1.06c-2.42,6.45-13.84,3.68-13.32-7.43" transform="translate(-244.52 -250.28)" style="fill:#fff"/><path d="M381.55,455c-4.26-1.63-3.69-9.67-.12-9.67,3,0,12,1.64,18.5-2.16,1.73,3.15,3.64,6.16,5.36,9.23-5.93,3.23-18.2,4.71-23.73,2.6" transform="translate(-244.52 -250.28)" style="fill:#231f20"/><path d="M412,461.53a33.4,33.4,0,0,1,7.19-7.31c.78,1,1.57,2,2.38,3-4.08,2.31-7.9,4.12-9.57,4.27" transform="translate(-244.52 -250.28)" style="fill:#fff"/><path d="M431.08,446.8c6.43,8.14,18.71,27.59,20.22,31.31s-3.06,13-6.46,14.7c-3.72-9.07-16.74-30.46-24.56-39.44a61.91,61.91,0,0,1,10.8-6.57" transform="translate(-244.52 -250.28)" style="fill:#231f20"/><path d="M454.72,477.36A44.87,44.87,0,0,0,455.84,497c-2-18,3.84-37.12,15.11-44,13.73-8.41,28.74,4.22,23.38,25.43-4.51,17.81-19.82,33.89-37.15,37.25-10.46,2-17.09-5.48-13.91-13.51a7.13,7.13,0,0,0,5.85-5.58c-2.52,3.54-6.72,5-8.58,3.7s-1.47-6.06,1.36-10.74c1,1.9,1.86,3.68,2.59,5.26,5.87-2.88,9.47-13,8.13-17.07,0-.13-.36-.68-.42-.82a4,4,0,0,1,2.53.43" transform="translate(-244.52 -250.28)" style="fill:#fff"/><path d="M434.38,448.33c-.6-.78-1.17-1.52-1.71-2.19a11,11,0,0,1,3.45-.85c.19.52-.28,1.54-1.74,3" transform="translate(-244.52 -250.28)" style="fill:#fff"/><path d="M435.47,441.67c-.83-1.2-1.83-2.66-3-4.27,3.4-1.16,7.21-3.71,8.66-6a36.39,36.39,0,0,1-9.61,4.67,61.5,61.5,0,0,0-10.06-11.19c4.17,4.8,10.82,15.23,13.54,19-6.46.78-20,9.77-24.24,16.4a65.73,65.73,0,0,0-3.71-7.92c-6-11.17-12-20.09-9.54-33.25,2.53-13.75,12.41-17.64,21.49-24.57,6.22,12.55,30.91,17.19,45.84,4.4-.29,1.14-.59,2.28-1,3.32-8.12,23.84-19.12,27.9-28.45,39.42" transform="translate(-244.52 -250.28)" style="fill:#fff"/><path d="M467,376.21A36,36,0,0,0,463.34,366l1.66-1.7a100.9,100.9,0,0,0,13.77,2.23,20.2,20.2,0,0,0-4.9,10.37c-2.24-.33-5-.53-6.88-.68" transform="translate(-244.52 -250.28)" style="fill:#231f20"/><path d="M478.46,398.19c-2-1.75-4.41-3.16-5-4.89-.89-2.51.53-4.19,2.5-5a9,9,0,0,0,6.19,2.92c.77,2.73,3.32,4.89,6.09,5.9.2,2.57-1.53,6.1-4.34,5.9-1.73-.11-2.56-2.36-5.41-4.84" transform="translate(-244.52 -250.28)" style="fill:#fff"/><path d="M512.75,396.57c-2.24.51-3.09,0-4.71-.32a6.9,6.9,0,0,0,2.82-3.36c-3.56,3.43-6.28,3.43-7.47,5.45a34.85,34.85,0,0,0,3.26-1.31c.94.17,1.77.47,2.65.71a9.74,9.74,0,0,1-7.07,3.72,7.08,7.08,0,0,1-6.84-5.16c-.8-3.2,1.24-8.45,5.51-12.8-5.31,2.48-7.72,8.8-7,12.67-4.73.57-9.44-2-10.23-5.89-.83-4,.53-9.84,6.64-16.72-6.38,4.16-9.22,11.31-8.46,16.43a8.15,8.15,0,0,1-6.48-7c-1.09-6.72,3.41-16.27,8.06-18.13,11.55-4.63,23.17,12.56,28.62,17.3a39.77,39.77,0,0,0-2.4-3.74c5.58,4.93,10.39,6,10.69,9.85.36,4.5-5,7.7-7.59,8.3" transform="translate(-244.52 -250.28)" style="fill:#fff"/><path d="M484.25,333.91c-3.65.58-6.72-1.21-6-5.1.62-3.56,3-9.44,5.72-12.19,4-4.09,12.23,0,10.22,8.62-1.07,4.54-5.35,7.93-9.9,8.66" transform="translate(-244.52 -250.28)" style="fill:#231f20"/><path d="M366,382c-2.5,2.23-6.85,7-8.19,9.43-.71-3.1,5-8.8,8.19-9.43" transform="translate(-244.52 -250.28)" style="fill:#231f20"/><path d="M368.27,384.38c-3.12,2-7.56,8.63-6.32,11.2,1.88-2.93,2.67-5.69,6.32-11.2" transform="translate(-244.52 -250.28)" style="fill:#231f20"/><path d="M372.18,387c-2,2.57-4.18,7.65-3.46,10.4a52.85,52.85,0,0,0,3.46-10.4" transform="translate(-244.52 -250.28)" style="fill:#231f20"/><path d="M427.21,428c-5.63-1.77,1.92-20.79,8.26-18.83,6.11,1.88-1.53,20.95-8.26,18.83" transform="translate(-244.52 -250.28)" style="fill:#231f20"/><path d="M427.58,427.29c-3.86-1.16,3.07-18.38,7.63-17.19,4.33,1.13-3.28,18.49-7.63,17.19" transform="translate(-244.52 -250.28)" style="fill:#fff"/><path d="M444.44,426.69c-3.36-2.14,5.59-19.49,9.82-17.49,1.61.75,2.28,5.4-1.08,10.7-2.81,4.42-6.36,8.32-8.74,6.79" transform="translate(-244.52 -250.28)" style="fill:#231f20"/><path d="M445,426c-1.93-1.27,6.43-17.09,8.75-15.92,1.14.57.75,5.07-1.73,9.14s-5.87,7.54-7,6.78" transform="translate(-244.52 -250.28)" style="fill:#fff"/><path d="M461.07,333.53c3.65-1.18,3.62-8.44,1.51-16-1.95-7-6.19-13.93-10.64-12.42s-3.12,10.06-.74,16.87c2.44,7,6.84,12.53,9.87,11.56" transform="translate(-244.52 -250.28)" style="fill:#231f20"/><path d="M458.74,327.3c-1.39-3.42-3.44-5.82-4.57-5.36-.5.2-.74.92-.73,2,1.85,4.4,4.44,8.27,6.49,8.78a13.93,13.93,0,0,0-1.19-5.38" transform="translate(-244.52 -250.28)" style="fill:#231f20"/><path d="M461.43,318.05c-2-7.32-5.86-13.21-9.14-12.06s-1.93,9.42.33,15.8l.14.38a1.82,1.82,0,0,1,1-1.22c1.62-.67,4.26,2,5.88,6a14.41,14.41,0,0,1,1.19,5.73h0c2.55-.86,2.71-6.69.59-14.61" transform="translate(-244.52 -250.28)" style="fill:#fff"/></svg>